<mxfile host="Electron" modified="2024-07-12T09:16:13.046Z" agent="Mozilla/5.0 (Macintosh; Intel Mac OS X 10_15_7) AppleWebKit/537.36 (KHTML, like Gecko) draw.io/23.1.5 Chrome/120.0.6099.109 Electron/28.1.0 Safari/537.36" etag="HGrC2W0C2mcjHuKakWbG" version="23.1.5" type="device">
  <diagram id="C5RBs43oDa-KdzZeNtuy" name="Page-1">
    <mxGraphModel dx="1149" dy="670" grid="1" gridSize="10" guides="1" tooltips="1" connect="1" arrows="1" fold="1" page="1" pageScale="1" pageWidth="827" pageHeight="1169" math="0" shadow="0">
      <root>
        <mxCell id="WIyWlLk6GJQsqaUBKTNV-0" />
        <mxCell id="WIyWlLk6GJQsqaUBKTNV-1" parent="WIyWlLk6GJQsqaUBKTNV-0" />
        <mxCell id="joWUTqednDimTW46ObBM-15" style="edgeStyle=orthogonalEdgeStyle;rounded=0;orthogonalLoop=1;jettySize=auto;html=1;exitX=1;exitY=0.5;exitDx=0;exitDy=0;entryX=0;entryY=0.5;entryDx=0;entryDy=0;" edge="1" parent="WIyWlLk6GJQsqaUBKTNV-1" source="joWUTqednDimTW46ObBM-0" target="joWUTqednDimTW46ObBM-2">
          <mxGeometry relative="1" as="geometry" />
        </mxCell>
        <mxCell id="joWUTqednDimTW46ObBM-16" style="edgeStyle=orthogonalEdgeStyle;rounded=0;orthogonalLoop=1;jettySize=auto;html=1;exitX=1;exitY=0.5;exitDx=0;exitDy=0;entryX=0;entryY=0.5;entryDx=0;entryDy=0;" edge="1" parent="WIyWlLk6GJQsqaUBKTNV-1" source="joWUTqednDimTW46ObBM-0" target="joWUTqednDimTW46ObBM-1">
          <mxGeometry relative="1" as="geometry" />
        </mxCell>
        <mxCell id="joWUTqednDimTW46ObBM-0" value="request(POST)" style="rounded=1;whiteSpace=wrap;html=1;" vertex="1" parent="WIyWlLk6GJQsqaUBKTNV-1">
          <mxGeometry x="120" y="180" width="90" height="30" as="geometry" />
        </mxCell>
        <mxCell id="joWUTqednDimTW46ObBM-19" style="edgeStyle=orthogonalEdgeStyle;rounded=0;orthogonalLoop=1;jettySize=auto;html=1;exitX=1;exitY=0.5;exitDx=0;exitDy=0;" edge="1" parent="WIyWlLk6GJQsqaUBKTNV-1" source="joWUTqednDimTW46ObBM-1" target="joWUTqednDimTW46ObBM-5">
          <mxGeometry relative="1" as="geometry">
            <mxPoint x="710" y="250" as="targetPoint" />
          </mxGeometry>
        </mxCell>
        <mxCell id="joWUTqednDimTW46ObBM-1" value="UserName" style="rounded=1;whiteSpace=wrap;html=1;" vertex="1" parent="WIyWlLk6GJQsqaUBKTNV-1">
          <mxGeometry x="330" y="210" width="90" height="30" as="geometry" />
        </mxCell>
        <mxCell id="joWUTqednDimTW46ObBM-17" style="edgeStyle=orthogonalEdgeStyle;rounded=0;orthogonalLoop=1;jettySize=auto;html=1;exitX=1;exitY=0.5;exitDx=0;exitDy=0;entryX=0;entryY=0.5;entryDx=0;entryDy=0;" edge="1" parent="WIyWlLk6GJQsqaUBKTNV-1" source="joWUTqednDimTW46ObBM-2" target="joWUTqednDimTW46ObBM-4">
          <mxGeometry relative="1" as="geometry" />
        </mxCell>
        <mxCell id="joWUTqednDimTW46ObBM-2" value="Password" style="rounded=1;whiteSpace=wrap;html=1;" vertex="1" parent="WIyWlLk6GJQsqaUBKTNV-1">
          <mxGeometry x="330" y="150" width="90" height="30" as="geometry" />
        </mxCell>
        <mxCell id="joWUTqednDimTW46ObBM-4" value="Md5(Password)" style="rounded=1;whiteSpace=wrap;html=1;" vertex="1" parent="WIyWlLk6GJQsqaUBKTNV-1">
          <mxGeometry x="510" y="150" width="90" height="30" as="geometry" />
        </mxCell>
        <mxCell id="joWUTqednDimTW46ObBM-20" style="edgeStyle=orthogonalEdgeStyle;rounded=0;orthogonalLoop=1;jettySize=auto;html=1;exitX=0.5;exitY=1;exitDx=0;exitDy=0;exitPerimeter=0;" edge="1" parent="WIyWlLk6GJQsqaUBKTNV-1" source="joWUTqednDimTW46ObBM-5" target="joWUTqednDimTW46ObBM-6">
          <mxGeometry relative="1" as="geometry" />
        </mxCell>
        <mxCell id="joWUTqednDimTW46ObBM-5" value="user_basic" style="shape=cylinder3;whiteSpace=wrap;html=1;boundedLbl=1;backgroundOutline=1;size=15;" vertex="1" parent="WIyWlLk6GJQsqaUBKTNV-1">
          <mxGeometry x="658" y="265" width="106" height="60" as="geometry" />
        </mxCell>
        <mxCell id="joWUTqednDimTW46ObBM-21" style="edgeStyle=orthogonalEdgeStyle;rounded=0;orthogonalLoop=1;jettySize=auto;html=1;exitX=0;exitY=0.5;exitDx=0;exitDy=0;entryX=1;entryY=0.5;entryDx=0;entryDy=0;" edge="1" parent="WIyWlLk6GJQsqaUBKTNV-1" source="joWUTqednDimTW46ObBM-6" target="joWUTqednDimTW46ObBM-7">
          <mxGeometry relative="1" as="geometry" />
        </mxCell>
        <mxCell id="joWUTqednDimTW46ObBM-22" style="edgeStyle=orthogonalEdgeStyle;rounded=0;orthogonalLoop=1;jettySize=auto;html=1;exitX=0;exitY=0.5;exitDx=0;exitDy=0;entryX=1;entryY=0.5;entryDx=0;entryDy=0;" edge="1" parent="WIyWlLk6GJQsqaUBKTNV-1" source="joWUTqednDimTW46ObBM-6" target="joWUTqednDimTW46ObBM-8">
          <mxGeometry relative="1" as="geometry" />
        </mxCell>
        <mxCell id="joWUTqednDimTW46ObBM-23" style="edgeStyle=orthogonalEdgeStyle;rounded=0;orthogonalLoop=1;jettySize=auto;html=1;exitX=0;exitY=0.5;exitDx=0;exitDy=0;entryX=1;entryY=0.5;entryDx=0;entryDy=0;" edge="1" parent="WIyWlLk6GJQsqaUBKTNV-1" source="joWUTqednDimTW46ObBM-6" target="joWUTqednDimTW46ObBM-9">
          <mxGeometry relative="1" as="geometry" />
        </mxCell>
        <mxCell id="joWUTqednDimTW46ObBM-6" value="user" style="rounded=1;whiteSpace=wrap;html=1;" vertex="1" parent="WIyWlLk6GJQsqaUBKTNV-1">
          <mxGeometry x="666" y="370" width="90" height="30" as="geometry" />
        </mxCell>
        <mxCell id="joWUTqednDimTW46ObBM-24" style="edgeStyle=orthogonalEdgeStyle;rounded=0;orthogonalLoop=1;jettySize=auto;html=1;exitX=0;exitY=0.5;exitDx=0;exitDy=0;entryX=1;entryY=0.5;entryDx=0;entryDy=0;" edge="1" parent="WIyWlLk6GJQsqaUBKTNV-1" source="joWUTqednDimTW46ObBM-7" target="joWUTqednDimTW46ObBM-10">
          <mxGeometry relative="1" as="geometry" />
        </mxCell>
        <mxCell id="joWUTqednDimTW46ObBM-7" value="user.Id" style="rounded=1;whiteSpace=wrap;html=1;" vertex="1" parent="WIyWlLk6GJQsqaUBKTNV-1">
          <mxGeometry x="510" y="320" width="90" height="30" as="geometry" />
        </mxCell>
        <mxCell id="joWUTqednDimTW46ObBM-25" style="edgeStyle=orthogonalEdgeStyle;rounded=0;orthogonalLoop=1;jettySize=auto;html=1;exitX=0;exitY=0.5;exitDx=0;exitDy=0;entryX=1;entryY=0.5;entryDx=0;entryDy=0;" edge="1" parent="WIyWlLk6GJQsqaUBKTNV-1" source="joWUTqednDimTW46ObBM-8" target="joWUTqednDimTW46ObBM-10">
          <mxGeometry relative="1" as="geometry" />
        </mxCell>
        <mxCell id="joWUTqednDimTW46ObBM-8" value="user.Identity" style="rounded=1;whiteSpace=wrap;html=1;" vertex="1" parent="WIyWlLk6GJQsqaUBKTNV-1">
          <mxGeometry x="510" y="370" width="90" height="30" as="geometry" />
        </mxCell>
        <mxCell id="joWUTqednDimTW46ObBM-27" style="edgeStyle=orthogonalEdgeStyle;rounded=0;orthogonalLoop=1;jettySize=auto;html=1;exitX=0;exitY=0.5;exitDx=0;exitDy=0;entryX=1;entryY=0.5;entryDx=0;entryDy=0;" edge="1" parent="WIyWlLk6GJQsqaUBKTNV-1" source="joWUTqednDimTW46ObBM-9" target="joWUTqednDimTW46ObBM-10">
          <mxGeometry relative="1" as="geometry" />
        </mxCell>
        <mxCell id="joWUTqednDimTW46ObBM-9" value="user.Name" style="rounded=1;whiteSpace=wrap;html=1;" vertex="1" parent="WIyWlLk6GJQsqaUBKTNV-1">
          <mxGeometry x="510" y="420" width="90" height="30" as="geometry" />
        </mxCell>
        <mxCell id="joWUTqednDimTW46ObBM-29" style="edgeStyle=orthogonalEdgeStyle;rounded=0;orthogonalLoop=1;jettySize=auto;html=1;exitX=0;exitY=0.5;exitDx=0;exitDy=0;entryX=1;entryY=0.5;entryDx=0;entryDy=0;" edge="1" parent="WIyWlLk6GJQsqaUBKTNV-1" source="joWUTqednDimTW46ObBM-10" target="joWUTqednDimTW46ObBM-13">
          <mxGeometry relative="1" as="geometry" />
        </mxCell>
        <mxCell id="joWUTqednDimTW46ObBM-10" value="JWT payload" style="rounded=1;whiteSpace=wrap;html=1;" vertex="1" parent="WIyWlLk6GJQsqaUBKTNV-1">
          <mxGeometry x="360" y="370" width="90" height="30" as="geometry" />
        </mxCell>
        <mxCell id="joWUTqednDimTW46ObBM-28" style="edgeStyle=orthogonalEdgeStyle;rounded=0;orthogonalLoop=1;jettySize=auto;html=1;exitX=0;exitY=0.5;exitDx=0;exitDy=0;entryX=1;entryY=0.5;entryDx=0;entryDy=0;" edge="1" parent="WIyWlLk6GJQsqaUBKTNV-1" source="joWUTqednDimTW46ObBM-11" target="joWUTqednDimTW46ObBM-13">
          <mxGeometry relative="1" as="geometry" />
        </mxCell>
        <mxCell id="joWUTqednDimTW46ObBM-11" value="JWT HashAlg" style="rounded=1;whiteSpace=wrap;html=1;" vertex="1" parent="WIyWlLk6GJQsqaUBKTNV-1">
          <mxGeometry x="360" y="295" width="90" height="30" as="geometry" />
        </mxCell>
        <mxCell id="joWUTqednDimTW46ObBM-30" style="edgeStyle=orthogonalEdgeStyle;rounded=0;orthogonalLoop=1;jettySize=auto;html=1;exitX=0;exitY=0.5;exitDx=0;exitDy=0;entryX=1;entryY=0.5;entryDx=0;entryDy=0;" edge="1" parent="WIyWlLk6GJQsqaUBKTNV-1" source="joWUTqednDimTW46ObBM-12" target="joWUTqednDimTW46ObBM-13">
          <mxGeometry relative="1" as="geometry" />
        </mxCell>
        <mxCell id="joWUTqednDimTW46ObBM-12" value="JWT secret" style="rounded=1;whiteSpace=wrap;html=1;" vertex="1" parent="WIyWlLk6GJQsqaUBKTNV-1">
          <mxGeometry x="360" y="450" width="90" height="30" as="geometry" />
        </mxCell>
        <mxCell id="joWUTqednDimTW46ObBM-32" style="edgeStyle=orthogonalEdgeStyle;rounded=0;orthogonalLoop=1;jettySize=auto;html=1;exitX=0;exitY=0.5;exitDx=0;exitDy=0;entryX=1;entryY=0.5;entryDx=0;entryDy=0;" edge="1" parent="WIyWlLk6GJQsqaUBKTNV-1" source="joWUTqednDimTW46ObBM-13" target="joWUTqednDimTW46ObBM-31">
          <mxGeometry relative="1" as="geometry" />
        </mxCell>
        <mxCell id="joWUTqednDimTW46ObBM-13" value="JWT token" style="rounded=1;whiteSpace=wrap;html=1;" vertex="1" parent="WIyWlLk6GJQsqaUBKTNV-1">
          <mxGeometry x="230" y="370" width="90" height="30" as="geometry" />
        </mxCell>
        <mxCell id="joWUTqednDimTW46ObBM-18" style="edgeStyle=orthogonalEdgeStyle;rounded=0;orthogonalLoop=1;jettySize=auto;html=1;exitX=1;exitY=0.5;exitDx=0;exitDy=0;entryX=0.5;entryY=0;entryDx=0;entryDy=0;entryPerimeter=0;" edge="1" parent="WIyWlLk6GJQsqaUBKTNV-1" source="joWUTqednDimTW46ObBM-4" target="joWUTqednDimTW46ObBM-5">
          <mxGeometry relative="1" as="geometry" />
        </mxCell>
        <mxCell id="joWUTqednDimTW46ObBM-31" value="response" style="rounded=1;whiteSpace=wrap;html=1;" vertex="1" parent="WIyWlLk6GJQsqaUBKTNV-1">
          <mxGeometry x="120" y="370" width="90" height="30" as="geometry" />
        </mxCell>
      </root>
    </mxGraphModel>
  </diagram>
</mxfile>
